<svg xmlns="http://www.w3.org/2000/svg" width="132.279" height="249.988" viewBox="0 0 132.279 249.988">
  <g id="Group_2" data-name="Group 2" transform="translate(-1040.898 -405.02)">
    <g id="undraw_welcome_cats_thqn" transform="translate(867 340)">
      <path id="Path_64" data-name="Path 64" d="M388.888,463.362c.561.008,1.123.015,1.692.015s1.13-.008,1.692-.015c29.757-.677,51.326-19.269,45.836-38.777L424.72,377l-3.384-12.041-59.976,1.023-3.645,11.78-14.348,46.366C337.293,443.739,358.861,462.685,388.888,463.362Z" transform="translate(-150.531 -155.29)" fill="#3f3d56"/>
      <path id="Path_65" data-name="Path 65" d="M357.715,377.758a66.2,66.2,0,0,0,67-.761l-3.383-12.042-59.976,1.023Z" transform="translate(-150.531 -155.29)" opacity="0.2"/>
      <path id="Path_67" data-name="Path 67" d="M418.261,470.3a6.92,6.92,0,0,0,6.92-6.92V433.389a6.92,6.92,0,0,0-13.841,0v29.988a6.92,6.92,0,0,0,6.921,6.921Z" transform="translate(-150.531 -155.29)" fill="#3f3d56"/>
      <path id="Path_68" data-name="Path 68" d="M412.193,399.105a6.92,6.92,0,0,0,9.179,3.394l27.243-12.534a6.92,6.92,0,0,0-5.785-12.574l-27.243,12.534A6.92,6.92,0,0,0,412.193,399.105Z" transform="translate(-150.531 -155.29)" fill="#3f3d56"/>
      <path id="Path_69" data-name="Path 69" d="M368.966,399.105a6.92,6.92,0,0,1-9.179,3.394l-27.243-12.534a6.92,6.92,0,1,1,5.785-12.574l27.243,12.534a6.92,6.92,0,0,1,3.394,9.179Z" transform="translate(-150.531 -155.29)" fill="#3f3d56"/>
      <path id="Path_70" data-name="Path 70" d="M362.9,470.3a6.92,6.92,0,0,1-6.92-6.92V433.389a6.92,6.92,0,1,1,13.841,0v29.988A6.92,6.92,0,0,1,362.9,470.3Z" transform="translate(-150.531 -155.29)" fill="#3f3d56"/>
      <path id="Path_71" data-name="Path 71" d="M445.947,274.221a6.844,6.844,0,0,0,.3-3.474l-3.766-22.157-3.766-22.157a6.913,6.913,0,0,0-11.226-4.164l-17.305,14.34-10.043,8.322a65.693,65.693,0,0,0-21.047.317l-10.426-8.639-17.305-14.34a6.913,6.913,0,0,0-11.226,4.164L336.37,248.59,332.6,270.747a6.806,6.806,0,0,0,1.374,5.408,66.137,66.137,0,1,0,111.969-1.935Z" transform="translate(-150.531 -155.29)" fill="#3f3d56"/>
      <path id="Path_72" data-name="Path 72" d="M427.051,232.14l-20.985,17.39h0a3.422,3.422,0,0,0,.993,5.844l25.553,9.479a3.423,3.423,0,0,0,4.565-3.782L432.61,234.2a3.388,3.388,0,0,0-2.184-2.635,3.446,3.446,0,0,0-1.2-.218A3.392,3.392,0,0,0,427.051,232.14Z" transform="translate(-150.531 -155.29)" fill="#e6e6e6"/>
      <path id="Path_73" data-name="Path 73" d="M348.427,231.566a3.388,3.388,0,0,0-2.184,2.635l-4.567,26.87a3.423,3.423,0,0,0,4.565,3.782l25.553-9.479a3.422,3.422,0,0,0,.993-5.844L351.8,232.14a3.392,3.392,0,0,0-2.172-.792A3.447,3.447,0,0,0,348.427,231.566Z" transform="translate(-150.531 -155.29)" fill="#e6e6e6"/>
      <circle id="Ellipse_31" data-name="Ellipse 31" cx="9.227" cy="9.227" r="9.227" transform="translate(230.821 155.071)" fill="#e6e6e6"/>
      <ellipse id="Ellipse_32" data-name="Ellipse 32" cx="6.151" cy="2.307" rx="6.151" ry="2.307" transform="translate(233.897 157.378)" fill="#3f3d56"/>
      <path id="Path_74" data-name="Path 74" d="M390.964,324.971h0a4.229,4.229,0,0,1,4.229,4.229v10.381h-8.458V329.2a4.229,4.229,0,0,1,4.229-4.229Z" transform="translate(631.396 509.261) rotate(180)" fill="#ff6584"/>
      <path id="Path_75" data-name="Path 75" d="M390.066,220.31c.444.92.874,1.849,1.279,2.8A65.818,65.818,0,0,1,396,258.452c-.866-1.256-1.776-2.565-2.7-3.888A65.775,65.775,0,0,0,390.066,220.31Z" transform="translate(-150.531 -155.29)" fill="#3f3d56"/>
      <path id="Path_76" data-name="Path 76" d="M383.146,228.768c.444.92.874,1.849,1.279,2.8a65.818,65.818,0,0,1,4.651,35.344c-.866-1.256-1.776-2.565-2.7-3.888a65.775,65.775,0,0,0-3.229-34.254Z" transform="translate(-150.531 -155.29)" fill="#3f3d56"/>
      <path id="Path_77" data-name="Path 77" d="M361.81,260.258l.975-12.4.975-12.4a3.825,3.825,0,0,1,5.98-2.853l10.25,7.043,7.485,5.143a5.1,5.1,0,0,1,7.749,0l7.485-5.143,10.25-7.043a3.825,3.825,0,0,1,5.98,2.853l.975,12.4.975,12.4a3.825,3.825,0,0,1-5.461,3.752L404.2,258.655l-9.223-4.4a5.1,5.1,0,0,1-7.262,0l-9.223,4.4L367.27,264.01a3.825,3.825,0,0,1-5.46-3.752Z" transform="translate(-150.531 -155.29)" fill="#c3c3f3"/>
      <path id="Path_78" data-name="Path 78" d="M400.575,309.592c0,1.274,1.033,0,2.307,0s2.307,1.274,2.307,0a2.307,2.307,0,1,0-4.614,0Z" transform="translate(-150.531 -155.29)" fill="#e6e6e6"/>
      <path id="Path_79" data-name="Path 79" d="M380.583,309.592c0,1.274-1.033,0-2.307,0s-2.307,1.274-2.307,0a2.307,2.307,0,1,1,4.614,0Z" transform="translate(-150.531 -155.29)" fill="#e6e6e6"/>
    </g>
  </g>
</svg>
