<svg xmlns="http://www.w3.org/2000/svg" width="158" height="252.503" viewBox="0 0 158 252.503">
  <g id="Group_1" data-name="Group 1" transform="translate(-436 -540)">
    <g id="undraw_convert_-2-gjv" transform="translate(-364 245.503)">
      <circle id="Ellipse_16" data-name="Ellipse 16" cx="79" cy="79" r="79" transform="translate(800 355)" fill="#2f2e41"/>
      <rect id="Rectangle_5" data-name="Rectangle 5" width="24" height="43" transform="translate(843 496)" fill="#2f2e41"/>
      <rect id="Rectangle_6" data-name="Rectangle 6" width="24" height="43" transform="translate(891 496)" fill="#2f2e41"/>
      <ellipse id="Ellipse_17" data-name="Ellipse 17" cx="20" cy="7.5" rx="20" ry="7.5" transform="translate(843 532)" fill="#2f2e41"/>
      <ellipse id="Ellipse_18" data-name="Ellipse 18" cx="20" cy="7.5" rx="20" ry="7.5" transform="translate(891 531)" fill="#2f2e41"/>
      <circle id="Ellipse_19" data-name="Ellipse 19" cx="27" cy="27" r="27" transform="translate(854 387)" fill="#fff"/>
      <circle id="Ellipse_20" data-name="Ellipse 20" cx="9" cy="9" r="9" transform="translate(872 405)" fill="#3f3d56"/>
      <path id="Path_4" data-name="Path 4" d="M895.367,534.532c-6.379-28.568,14.012-57.434,45.544-64.475s62.265,10.41,68.644,38.978-14.519,39.1-46.051,46.145S901.746,563.1,895.367,534.532Z" transform="translate(-93 -174)" fill="#c3c3f3"/>
    </g>
  </g>
</svg>
