<svg xmlns="http://www.w3.org/2000/svg" width="133.18" height="134.091" viewBox="0 0 133.18 134.091">
  <g id="Group_1" data-name="Group 1" transform="translate(-104.157 -37.774)">
    <g id="undraw_moonlight_-5-ksn" transform="translate(637 74)">
      <rect id="Rectangle_14" data-name="Rectangle 14" width="2" height="1" transform="translate(-462.944 8.875)" fill="#f2f2f2"/>
      <path id="Path_59" data-name="Path 59" d="M1037.04,656.428s2.192-2.279,2.148-4.515" transform="translate(-1452.304 -575.901)" fill="#ff6584"/>
      <path id="Path_66" data-name="Path 66" d="M1039.04,670.428s2.192-2.279,2.148-4.515" transform="translate(-1452.304 -572.564)" fill="#ff6584"/>
      <ellipse id="Ellipse_17" data-name="Ellipse 17" cx="66.59" cy="66.5" rx="66.59" ry="66.5" transform="translate(-532.843 -36.226)" fill="#f2f2f2"/>
    </g>
    <g id="undraw_moonlight_-5-ksn-2" data-name="undraw_moonlight_-5-ksn" transform="translate(637 74)">
      <rect id="Rectangle_14-2" data-name="Rectangle 14" width="2" height="1" transform="translate(-462.944 8.875)" fill="#f2f2f2"/>
      <path id="Path_59-2" data-name="Path 59" d="M1037.04,656.428s2.192-2.279,2.148-4.515" transform="translate(-1452.304 -575.901)" fill="#ff6584"/>
      <path id="Path_66-2" data-name="Path 66" d="M1039.04,670.428s2.192-2.279,2.148-4.515" transform="translate(-1452.304 -572.564)" fill="#ff6584"/>
      <ellipse id="Ellipse_17-2" data-name="Ellipse 17" cx="66.59" cy="66.5" rx="66.59" ry="66.5" transform="translate(-532.843 -36.226)" fill="#f2f2f2"/>
    </g>
  </g>
</svg>
