<svg xmlns="http://www.w3.org/2000/svg" width="1013.945" height="503" viewBox="0 0 1013.945 503">
  <g id="Group_1" data-name="Group 1" transform="translate(-470.157 -327)">
    <g id="undraw_moonlight_-5-ksn" transform="translate(514 349)">
      <path id="Path_1" data-name="Path 1" d="M600,198.5c-278.673,0-504.824,224.834-506.975,503H1106.97C1104.82,423.334,878.673,198.5,600,198.5Z" transform="translate(-136.868 -220.5)" fill="#2f2e41"/>
      <circle id="Ellipse_1" data-name="Ellipse 1" cx="5" cy="5" r="5" transform="translate(475.788 47.544)" fill="#f2f2f2"/>
      <circle id="Ellipse_2" data-name="Ellipse 2" cx="2" cy="2" r="2" transform="translate(321.788 215.544)" fill="#f2f2f2"/>
      <circle id="Ellipse_3" data-name="Ellipse 3" cx="2" cy="2" r="2" transform="translate(616.788 309.544)" fill="#f2f2f2"/>
      <circle id="Ellipse_4" data-name="Ellipse 4" cx="2" cy="2" r="2" transform="translate(95.788 284.544)" fill="#f2f2f2"/>
      <circle id="Ellipse_5" data-name="Ellipse 5" cx="2" cy="2" r="2" transform="translate(875.788 213.544)" fill="#f2f2f2"/>
      <circle id="Ellipse_6" data-name="Ellipse 6" cx="2" cy="2" r="2" transform="translate(233.788 234.544)" fill="#f2f2f2"/>
      <circle id="Ellipse_7" data-name="Ellipse 7" cx="2" cy="2" r="2" transform="translate(561.788 194.544)" fill="#f2f2f2"/>
      <circle id="Ellipse_8" data-name="Ellipse 8" cx="2" cy="2" r="2" transform="translate(627.788 50.544)" fill="#f2f2f2"/>
      <rect id="Rectangle_1" data-name="Rectangle 1" width="2" height="1" transform="translate(211.788 288.544)" fill="#f2f2f2"/>
      <rect id="Rectangle_2" data-name="Rectangle 2" width="2" height="1" transform="translate(270.788 135.544)" fill="#f2f2f2"/>
      <rect id="Rectangle_3" data-name="Rectangle 3" width="2" height="1" transform="translate(414.788 249.544)" fill="#f2f2f2"/>
      <rect id="Rectangle_4" data-name="Rectangle 4" width="2" height="1" transform="translate(796.788 293.544)" fill="#f2f2f2"/>
      <rect id="Rectangle_5" data-name="Rectangle 5" width="2" height="1" transform="translate(677.788 140.544)" fill="#f2f2f2"/>
    </g>
  </g>
</svg>
