<svg xmlns="http://www.w3.org/2000/svg" width="882.376" height="455.139" viewBox="0 0 882.376 455.139">
  <g id="Group_2" data-name="Group 2" transform="translate(-460.788 -256.544)">
    <g id="Group_1" data-name="Group 1">
      <g id="undraw_moonlight_-5-ksn" transform="translate(395 209)">
        <circle id="Ellipse_1" data-name="Ellipse 1" cx="5" cy="5" r="5" transform="translate(475.788 47.544)" fill="#3f3d56"/>
        <circle id="Ellipse_2" data-name="Ellipse 2" cx="2" cy="2" r="2" transform="translate(321.788 215.544)" fill="#3f3d56"/>
        <circle id="Ellipse_3" data-name="Ellipse 3" cx="2" cy="2" r="2" transform="translate(616.788 309.544)" fill="#3f3d56"/>
        <circle id="Ellipse_4" data-name="Ellipse 4" cx="2" cy="2" r="2" transform="translate(95.788 284.544)" fill="#3f3d56"/>
        <circle id="Ellipse_5" data-name="Ellipse 5" cx="2" cy="2" r="2" transform="translate(875.788 213.544)" fill="#3f3d56"/>
        <circle id="Ellipse_6" data-name="Ellipse 6" cx="2" cy="2" r="2" transform="translate(233.788 234.544)" fill="#3f3d56"/>
        <circle id="Ellipse_7" data-name="Ellipse 7" cx="2" cy="2" r="2" transform="translate(561.788 194.544)" fill="#3f3d56"/>
        <circle id="Ellipse_8" data-name="Ellipse 8" cx="2" cy="2" r="2" transform="translate(627.788 50.544)" fill="#3f3d56"/>
        <rect id="Rectangle_1" data-name="Rectangle 1" width="2" height="1" transform="translate(211.788 288.544)" fill="#3f3d56"/>
        <rect id="Rectangle_2" data-name="Rectangle 2" width="2" height="1" transform="translate(270.788 135.544)" fill="#3f3d56"/>
        <rect id="Rectangle_3" data-name="Rectangle 3" width="2" height="1" transform="translate(414.788 249.544)" fill="#3f3d56"/>
        <rect id="Rectangle_4" data-name="Rectangle 4" width="2" height="1" transform="translate(796.788 293.544)" fill="#3f3d56"/>
        <rect id="Rectangle_5" data-name="Rectangle 5" width="2" height="1" transform="translate(677.788 140.544)" fill="#3f3d56"/>
        <rect id="Rectangle_6" data-name="Rectangle 6" width="3.519" height="139.003" transform="translate(225.089 363.68)" fill="#3f3d56"/>
        <path id="Path_2" data-name="Path 2" d="M354.111,537.894c.224,48.606-33.973,88.167-33.973,88.167s-34.56-39.245-34.784-87.851,33.973-88.167,33.973-88.167S353.887,489.288,354.111,537.894Z" transform="translate(-93.025 -198.5)" fill="#3f3d56"/>
        <rect id="Rectangle_7" data-name="Rectangle 7" width="4.562" height="180.211" transform="translate(180.61 322.472)" fill="#3f3d56"/>
        <path id="Path_3" data-name="Path 3" d="M320.3,501.938c.29,63.015-44.044,114.3-44.044,114.3s-44.805-50.879-45.1-113.894,44.044-114.3,44.044-114.3S320.012,438.923,320.3,501.938Z" transform="translate(-93.025 -198.5)" fill="#3f3d56"/>
        <rect id="Rectangle_8" data-name="Rectangle 8" width="3.519" height="139.003" transform="translate(712.089 363.68)" fill="#3f3d56"/>
        <path id="Path_4" data-name="Path 4" d="M841.111,579.894c.224,48.606-33.973,88.167-33.973,88.167s-34.56-39.245-34.784-87.851,33.973-88.167,33.973-88.167S840.887,531.288,841.111,579.894Z" transform="translate(-93.025 -198.5)" fill="#3f3d56"/>
        <rect id="Rectangle_9" data-name="Rectangle 9" width="3.519" height="139.003" transform="translate(141.089 363.68)" fill="#3f3d56"/>
        <path id="Path_5" data-name="Path 5" d="M270.111,537.894c.224,48.606-33.973,88.167-33.973,88.167s-34.56-39.245-34.784-87.851,33.973-88.167,33.973-88.167S269.887,489.288,270.111,537.894Z" transform="translate(-93.025 -198.5)" fill="#3f3d56"/>
        <rect id="Rectangle_10" data-name="Rectangle 10" width="3.519" height="139.003" transform="translate(451.089 363.68)" fill="#3f3d56"/>
        <path id="Path_6" data-name="Path 6" d="M580.111,537.894c.224,48.606-33.973,88.167-33.973,88.167s-34.56-39.245-34.784-87.851,33.973-88.167,33.973-88.167S579.887,489.288,580.111,537.894Z" transform="translate(-93.025 -198.5)" fill="#3f3d56"/>
        <rect id="Rectangle_11" data-name="Rectangle 11" width="4.562" height="180.211" transform="translate(406.61 322.472)" fill="#3f3d56"/>
        <path id="Path_7" data-name="Path 7" d="M546.3,501.938c.29,63.015-44.044,114.3-44.044,114.3s-44.806-50.879-45.1-113.894,44.044-114.3,44.044-114.3S546.012,438.923,546.3,501.938Z" transform="translate(-93.025 -198.5)" fill="#3f3d56"/>
        <rect id="Rectangle_12" data-name="Rectangle 12" width="3.519" height="139.003" transform="translate(367.089 363.68)" fill="#3f3d56"/>
        <path id="Path_8" data-name="Path 8" d="M496.111,537.894c.224,48.606-33.973,88.167-33.973,88.167s-34.56-39.245-34.784-87.851,33.973-88.167,33.973-88.167S495.887,489.288,496.111,537.894Z" transform="translate(-93.025 -198.5)" fill="#3f3d56"/>
        <path id="Path_9" data-name="Path 9" d="M831.387,626.913l-58.8-54.069c-.159,2.43-.241,4.886-.23,7.367.224,48.606,34.784,87.851,34.784,87.851a162.817,162.817,0,0,0,24.25-41.148Z" transform="translate(-93.025 -198.5)" fill="#3f3d56"/>
        <path id="Path_10" data-name="Path 10" d="M393.669,688.784c2.015,7.448,8.916,12.06,8.916,12.06s3.634-7.463,1.62-14.91-8.916-12.06-8.916-12.06S391.654,681.336,393.669,688.784Z" transform="translate(-93.025 -198.5)" fill="#3f3d56"/>
        <path id="Path_11" data-name="Path 11" d="M396.63,687.183c5.529,5.382,6.2,13.655,6.2,13.655s-8.288-.453-13.817-5.834-6.2-13.655-6.2-13.655S391.1,681.8,396.63,687.183Z" transform="translate(-93.025 -198.5)" fill="#3f3d56"/>
        <path id="Path_12" data-name="Path 12" d="M677.669,688.784c2.015,7.448,8.916,12.06,8.916,12.06s3.634-7.463,1.62-14.91-8.916-12.06-8.916-12.06S675.654,681.336,677.669,688.784Z" transform="translate(-93.025 -198.5)" fill="#3f3d56"/>
        <path id="Path_13" data-name="Path 13" d="M680.63,687.183c5.529,5.382,6.2,13.655,6.2,13.655s-8.288-.453-13.817-5.834-6.2-13.655-6.2-13.655S675.1,681.8,680.63,687.183Z" transform="translate(-93.025 -198.5)" fill="#3f3d56"/>
        <path id="Path_14" data-name="Path 14" d="M169.669,688.784c2.015,7.448,8.916,12.06,8.916,12.06s3.634-7.463,1.62-14.91-8.916-12.06-8.916-12.06S167.654,681.336,169.669,688.784Z" transform="translate(-93.025 -198.5)" fill="#3f3d56"/>
        <path id="Path_15" data-name="Path 15" d="M172.63,687.183c5.529,5.382,6.2,13.655,6.2,13.655s-8.288-.453-13.817-5.834-6.2-13.655-6.2-13.655S167.1,681.8,172.63,687.183Z" transform="translate(-93.025 -198.5)" fill="#3f3d56"/>
        <path id="Path_16" data-name="Path 16" d="M480.358,419.207l96.51,145.662a113.622,113.622,0,0,0,3.242-26.975c-.109-23.7-8.383-45.175-16.833-60.96l-4.465,1.109,4.2-1.6a155.072,155.072,0,0,0-17.685-26.4s-2.462,2.85-6.059,7.955c-12.68-41.128-38.061-69.955-38.061-69.955a197.511,197.511,0,0,0-20.849,31.163Z" transform="translate(-93.025 -198.5)" fill="#3f3d56"/>
        <path id="Path_26" data-name="Path 26" d="M1037.04,656.428s2.192-2.279,2.148-4.515" transform="translate(-93.025 -198.5)" fill="#3f3d56"/>
        <path id="Path_28" data-name="Path 28" d="M992.575,596.436s-.915-3.027-2.886-4.083" transform="translate(-93.025 -198.5)" fill="#3f3d56"/>
        <path id="Path_30" data-name="Path 30" d="M1015.57,602.436s-.915-3.027-2.886-4.083" transform="translate(-93.025 -198.5)" fill="#3f3d56"/>
        <path id="Path_32" data-name="Path 32" d="M1035.04,687.428s2.192-2.279,2.148-4.515" transform="translate(-93.025 -198.5)" fill="#3f3d56"/>
        <path id="Path_33" data-name="Path 33" d="M1039.04,670.428s2.192-2.279,2.148-4.515" transform="translate(-93.025 -198.5)" fill="#3f3d56"/>
      </g>
    </g>
  </g>
</svg>
